# xmcd CD database file
#
# Track frame offsets:
#	150
#	21027
#	38492
#	56425
#	77180
#	96470
#	116822
#	133522
#	152022
#	171377
#
# Disc length: 2546 seconds
#
# Revision: 0
# Processed by: cddbd v1.5PL3 Copyright (c) Steve Scherf et al.
# Submitted via: CDex 1.51
#
DISCID=7d09f00a
DTITLE=La Artilleria - Orquesta La Artilleria
DYEAR=1900
DGENRE=Merengue
TTITLE0=Te Vi Nacer
TTITLE1=Por Que Tanto Amor
TTITLE2=El Contagio
TTITLE3=Corazon Cobarde
TTITLE4=Contigo
TTITLE5=La Receta
TTITLE6=La Indiscreta
TTITLE7=La Viuda
TTITLE8=La Vecina
TTITLE9=No Te Lleves De La Gente
EXTD=
EXTT0=
EXTT1=
EXTT2=
EXTT3=
EXTT4=
EXTT5=
EXTT6=
EXTT7=
EXTT8=
EXTT9=
PLAYORDER=
